<?xml version="1.0" encoding="UTF-8" standalone="no"?>
<!-- Created with Inkscape (http://www.inkscape.org/) -->

<svg
   xmlns:dc="http://purl.org/dc/elements/1.1/"
   xmlns:cc="http://creativecommons.org/ns#"
   xmlns:rdf="http://www.w3.org/1999/02/22-rdf-syntax-ns#"
   xmlns:svg="http://www.w3.org/2000/svg"
   xmlns="http://www.w3.org/2000/svg"
   xmlns:sodipodi="http://sodipodi.sourceforge.net/DTD/sodipodi-0.dtd"
   xmlns:inkscape="http://www.inkscape.org/namespaces/inkscape"
   width="1920"
   height="1080"
   id="svg2"
   version="1.1"
   inkscape:version="0.48.5 r10040"
   sodipodi:docname="GimmeGame_Logo01.svg"
   inkscape:export-filename="/home/romeu/Documentos/CodeRaceIV/GimmeGame_Logo01.png"
   inkscape:export-xdpi="90"
   inkscape:export-ydpi="90">
  <defs
     id="defs4" />
  <sodipodi:namedview
     id="base"
     pagecolor="#ffffff"
     bordercolor="#666666"
     borderopacity="1.0"
     inkscape:pageopacity="1"
     inkscape:pageshadow="2"
     inkscape:zoom="0.35"
     inkscape:cx="670.43322"
     inkscape:cy="602.25228"
     inkscape:document-units="px"
     inkscape:current-layer="layer1"
     showgrid="false"
     inkscape:showpageshadow="false"
     inkscape:window-width="1366"
     inkscape:window-height="702"
     inkscape:window-x="0"
     inkscape:window-y="27"
     inkscape:window-maximized="1"
     showguides="true"
     inkscape:guide-bbox="true"
     inkscape:snap-bbox="true"
     inkscape:bbox-paths="true"
     inkscape:bbox-nodes="true"
     inkscape:snap-bbox-edge-midpoints="true"
     inkscape:snap-bbox-midpoints="true"
     inkscape:snap-nodes="false" />
  <metadata
     id="metadata7">
    <rdf:RDF>
      <cc:Work
         rdf:about="">
        <dc:format>image/svg+xml</dc:format>
        <dc:type
           rdf:resource="http://purl.org/dc/dcmitype/StillImage" />
        <dc:title />
      </cc:Work>
    </rdf:RDF>
  </metadata>
  <g
     inkscape:label="Camada 1"
     inkscape:groupmode="layer"
     id="layer1"
     transform="translate(0,27.637817)">
    <text
       xml:space="preserve"
       style="font-size:149.84835814999999570px;font-style:normal;font-variant:normal;font-weight:normal;font-stretch:normal;line-height:125%;letter-spacing:0px;word-spacing:0px;fill:#424242;fill-opacity:1;stroke:none;font-family:Mr Headlines Fancy;-inkscape-font-specification:Mr Headlines Fancy"
       x="525.60602"
       y="789.20532"
       id="text3900"
       sodipodi:linespacing="125%"
       transform="scale(1.0270393,0.97367258)"><tspan
         sodipodi:role="line"
         id="tspan3902"
         x="525.60602"
         y="789.20532">GIMMEGAME</tspan></text>
    <path
       sodipodi:type="star"
       style="fill:#424242;fill-opacity:1;fill-rule:evenodd;stroke:#ffffff;stroke-width:7.09472274999999986;stroke-miterlimit:4;stroke-opacity:1;stroke-dasharray:none"
       id="path3760"
       sodipodi:sides="4"
       sodipodi:cx="434.28571"
       sodipodi:cy="395.42856"
       sodipodi:r1="196.81133"
       sodipodi:r2="182.3766"
       sodipodi:arg1="0.69287955"
       sodipodi:arg2="1.4782777"
       inkscape:flatsided="true"
       inkscape:rounded="0.19"
       inkscape:randomized="0"
       d="M 585.71428,521.14285 C 551.93478,561.8318 349.26036,580.63664 308.57141,546.85714 267.88247,513.07763 249.07762,310.40321 282.85713,269.71427 316.63663,229.02532 519.31105,210.22048 560,243.99998 c 40.68894,33.7795 59.49379,236.45393 25.71428,277.14287 z"
       transform="matrix(0.76194698,0.1459843,-0.12915014,0.9496562,748.49392,-59.344997)" />
    <path
       sodipodi:nodetypes="ssssssssssss"
       inkscape:connector-curvature="0"
       id="path3762"
       d="m 1101.3154,481.8449 c -23.4963,27.48012 -142.6309,23.35086 -162.9082,-5.6465 -20.2772,-28.99736 -11.5164,-182.70735 11.9797,-210.1875 23.49626,-27.48017 142.6307,-23.35089 162.9081,5.64646 8.145,11.64789 11.1984,23.68265 10.8999,59.31155 -0.021,2.53206 -18.9397,-1.01837 -44.8199,-4.46171 -24.9484,-3.31932 -61.0684,-3.37203 -68.3467,1.42632 -6.925,4.56546 -12.21464,82.83713 -5.9851,90.84171 2.9392,3.77656 40.2572,7.01982 43.8671,2.06864 4.0395,-5.54046 3.6044,-56.7598 6.3854,-59.67838 3.3554,-3.52111 67.1527,1.88955 67.9572,6.01355 3.2385,16.60454 -10.9062,101.76388 -21.9375,114.66586 z"
       style="fill:#ffb300;fill-opacity:1;fill-rule:evenodd;stroke:#ffffff;stroke-width:8.62174225000000050;stroke-miterlimit:4;stroke-opacity:1;stroke-dasharray:none" />
    <path
       transform="matrix(0.77119657,0.02489903,-6.9221107e-4,0.94948326,505.84167,-24.32934)"
       d="M 585.71428,521.14285 C 551.93478,561.8318 349.26036,580.63664 308.57141,546.85714 267.88247,513.07763 249.07762,310.40321 282.85713,269.71427 316.63663,229.02532 519.31105,210.22048 560,243.99998 c 40.68894,33.7795 59.49379,236.45393 25.71428,277.14287 z"
       inkscape:randomized="0"
       inkscape:rounded="0.19"
       inkscape:flatsided="true"
       sodipodi:arg2="1.4782777"
       sodipodi:arg1="0.69287955"
       sodipodi:r2="182.3766"
       sodipodi:r1="196.81133"
       sodipodi:cy="395.42856"
       sodipodi:cx="434.28571"
       sodipodi:sides="4"
       id="path3852"
       style="fill:#424242;fill-opacity:1;fill-rule:evenodd;stroke:#ffffff;stroke-width:7.09472274999999986;stroke-miterlimit:4;stroke-opacity:1;stroke-dasharray:none"
       sodipodi:type="star" />
    <path
       style="fill:#81d4fa;fill-opacity:1;fill-rule:evenodd;stroke:#ffffff;stroke-width:8.56239509999999981;stroke-miterlimit:4;stroke-opacity:1;stroke-dasharray:none"
       d="m 933.0094,454.53777 c -19.7868,29.6858 -138.51532,39.79076 -162.35283,13.81779 -23.83754,-25.97298 -34.86215,-177.45474 -15.07539,-207.14056 19.78676,-29.68584 138.5153,-39.79079 162.35292,-13.81783 9.5752,10.43303 14.1482,21.84933 18.4221,56.75607 0.3037,2.48074 -18.9214,1.25222 -45.04014,0.9552 -25.17812,-0.28628 -61.02122,3.95111 -67.62693,9.51171 -6.28501,5.29064 -1.49304,82.52605 5.71436,89.62071 3.4004,3.34724 40.84149,2.09029 43.78794,-3.18427 3.29712,-5.90231 -3.7047,-55.98082 -1.31966,-59.16759 2.87741,-3.84469 66.86753,-6.12454 68.19463,-2.18377 5.3431,15.86691 2.2328,100.89501 -7.057,114.83253 z"
       id="path3854"
       inkscape:connector-curvature="0"
       sodipodi:nodetypes="ssssssssssss" />
    <path
       style="fill:#424242;fill-opacity:1;stroke:none"
       d="m 790.79517,513.6651 c 0,0 10.84951,12.41291 3.29699,29.64209 -9.02188,20.58113 -18.94425,21.61689 -15.74276,23.88699 4.55175,3.22747 37.7796,-2.4657 55.75418,-12.7249 16.64038,-9.49771 28.37986,-26.33403 29.20621,-37.52171 0.59612,-8.07088 -72.51462,-3.28247 -72.51462,-3.28247 z"
       id="path3892"
       inkscape:connector-curvature="0"
       sodipodi:nodetypes="cssssc" />
    <path
       sodipodi:nodetypes="cssssc"
       inkscape:connector-curvature="0"
       id="path3764"
       d="m 1083.7716,529.37243 c 0,0 -11.1952,12.2805 -4.1313,29.95162 8.4382,21.10902 18.3278,22.43334 15.0634,24.64554 -4.641,3.14516 -37.6956,-3.54444 -55.374,-14.43971 -16.3664,-10.08657 -27.6268,-27.47536 -28.1375,-38.83716 -0.3683,-8.1965 72.5794,-1.32029 72.5794,-1.32029 z"
       style="fill:#424242;fill-opacity:1;stroke:none" />
  </g>
</svg>
